<svg width="38" height="38" viewBox="0 0 38 38" fill="none" xmlns="http://www.w3.org/2000/svg">
<g filter="url(#filter0_f_1_787)">
<circle cx="19" cy="19" r="18" fill="#EFEFEF"/>
</g>
<path d="M19.3417 27.5051C19.681 27.4973 20.0065 27.3697 20.2608 27.145C20.5151 26.9203 20.6817 26.6129 20.7311 26.2772H17.8984C17.9493 26.6221 18.1237 26.9367 18.3892 27.1625C18.6547 27.3884 18.9932 27.5101 19.3417 27.5051Z" fill="black"/>
<path d="M27.1563 24.0316C26.637 23.5686 26.1823 23.0379 25.8046 22.4537C25.3922 21.6472 25.145 20.7665 25.0775 19.8633V17.2029C25.0754 16.8798 25.0465 16.5574 24.9914 16.2389C24.5675 16.1542 24.1601 16.0015 23.7851 15.7866C23.928 16.2469 24.0007 16.7263 24.0005 17.2083V19.8687C24.0665 20.9705 24.3696 22.0452 24.8891 23.0191C25.2609 23.6083 25.702 24.1507 26.2031 24.6347H12.4112C12.9122 24.1507 13.3534 23.6083 13.7252 23.0191C14.2447 22.0452 14.5478 20.9705 14.6138 19.8687V17.2029C14.611 16.5797 14.7311 15.962 14.9673 15.3852C15.2035 14.8085 15.5512 14.2839 15.9904 13.8417C16.4296 13.3995 16.9517 13.0483 17.5269 12.8082C18.102 12.568 18.7189 12.4437 19.3421 12.4423C20.2543 12.443 21.146 12.7127 21.9056 13.2178C21.8218 12.9102 21.7748 12.5939 21.7656 12.2753V11.936C21.2032 11.6594 20.5992 11.4775 19.9776 11.3975V10.7189C19.9776 10.5283 19.9019 10.3454 19.767 10.2106C19.6322 10.0757 19.4493 10 19.2587 10C19.068 10 18.8851 10.0757 18.7503 10.2106C18.6155 10.3454 18.5397 10.5283 18.5397 10.7189V11.4244C17.148 11.6208 15.8743 12.314 14.9537 13.376C14.0332 14.4381 13.5279 15.7974 13.5313 17.2029V19.8633C13.4639 20.7665 13.2167 21.6472 12.8043 22.4537C12.4332 23.0365 11.9858 23.5672 11.4741 24.0316C11.4167 24.082 11.3706 24.1442 11.3391 24.2138C11.3075 24.2834 11.2911 24.359 11.291 24.4355V25.1679C11.291 25.3107 11.3478 25.4477 11.4487 25.5487C11.5497 25.6497 11.6867 25.7064 11.8296 25.7064H26.8009C26.9437 25.7064 27.0807 25.6497 27.1817 25.5487C27.2827 25.4477 27.3394 25.3107 27.3394 25.1679V24.4355C27.3393 24.359 27.3229 24.2834 27.2914 24.2138C27.2598 24.1442 27.2137 24.082 27.1563 24.0316Z" fill="black"/>
<path d="M23.1116 17.1217C24.5988 17.1217 25.8043 15.9161 25.8043 14.429C25.8043 12.9419 24.5988 11.7363 23.1116 11.7363C21.6245 11.7363 20.4189 12.9419 20.4189 14.429C20.4189 15.9161 21.6245 17.1217 23.1116 17.1217Z" fill="#FF0000"/>
<defs>
<filter id="filter0_f_1_787" x="0" y="0" width="38" height="38" filterUnits="userSpaceOnUse" color-interpolation-filters="sRGB">
<feFlood flood-opacity="0" result="BackgroundImageFix"/>
<feBlend mode="normal" in="SourceGraphic" in2="BackgroundImageFix" result="shape"/>
<feGaussianBlur stdDeviation="0.5" result="effect1_foregroundBlur_1_787"/>
</filter>
</defs>
</svg>
