<svg width="38" height="38" viewBox="0 0 38 38" fill="none" xmlns="http://www.w3.org/2000/svg">
<g filter="url(#filter0_f_1_810)">
<circle cx="19" cy="19" r="18" fill="#EFEFEF"/>
</g>
<path fill-rule="evenodd" clip-rule="evenodd" d="M14 11H11V14H14V11ZM11 10C10.7348 10 10.4804 10.1054 10.2929 10.2929C10.1054 10.4804 10 10.7348 10 11V14C10 14.2652 10.1054 14.5196 10.2929 14.7071C10.4804 14.8946 10.7348 15 11 15H14C14.2652 15 14.5196 14.8946 14.7071 14.7071C14.8946 14.5196 15 14.2652 15 14V11C15 10.7348 14.8946 10.4804 14.7071 10.2929C14.5196 10.1054 14.2652 10 14 10H11ZM14 17.5H11V20.5H14V17.5ZM11 16.5C10.7348 16.5 10.4804 16.6054 10.2929 16.7929C10.1054 16.9804 10 17.2348 10 17.5V20.5C10 20.7652 10.1054 21.0196 10.2929 21.2071C10.4804 21.3946 10.7348 21.5 11 21.5H14C14.2652 21.5 14.5196 21.3946 14.7071 21.2071C14.8946 21.0196 15 20.7652 15 20.5V17.5C15 17.2348 14.8946 16.9804 14.7071 16.7929C14.5196 16.6054 14.2652 16.5 14 16.5H11ZM14 24H11V27H14V24ZM11 23C10.7348 23 10.4804 23.1054 10.2929 23.2929C10.1054 23.4804 10 23.7348 10 24V27C10 27.2652 10.1054 27.5196 10.2929 27.7071C10.4804 27.8946 10.7348 28 11 28H14C14.2652 28 14.5196 27.8946 14.7071 27.7071C14.8946 27.5196 15 27.2652 15 27V24C15 23.7348 14.8946 23.4804 14.7071 23.2929C14.5196 23.1054 14.2652 23 14 23H11ZM20.5 11H17.5V14H20.5V11ZM17.5 10C17.2348 10 16.9804 10.1054 16.7929 10.2929C16.6054 10.4804 16.5 10.7348 16.5 11V14C16.5 14.2652 16.6054 14.5196 16.7929 14.7071C16.9804 14.8946 17.2348 15 17.5 15H20.5C20.7652 15 21.0196 14.8946 21.2071 14.7071C21.3946 14.5196 21.5 14.2652 21.5 14V11C21.5 10.7348 21.3946 10.4804 21.2071 10.2929C21.0196 10.1054 20.7652 10 20.5 10H17.5ZM20.5 17.5H17.5V20.5H20.5V17.5ZM17.5 16.5C17.2348 16.5 16.9804 16.6054 16.7929 16.7929C16.6054 16.9804 16.5 17.2348 16.5 17.5V20.5C16.5 20.7652 16.6054 21.0196 16.7929 21.2071C16.9804 21.3946 17.2348 21.5 17.5 21.5H20.5C20.7652 21.5 21.0196 21.3946 21.2071 21.2071C21.3946 21.0196 21.5 20.7652 21.5 20.5V17.5C21.5 17.2348 21.3946 16.9804 21.2071 16.7929C21.0196 16.6054 20.7652 16.5 20.5 16.5H17.5ZM20.5 24H17.5V27H20.5V24ZM17.5 23C17.2348 23 16.9804 23.1054 16.7929 23.2929C16.6054 23.4804 16.5 23.7348 16.5 24V27C16.5 27.2652 16.6054 27.5196 16.7929 27.7071C16.9804 27.8946 17.2348 28 17.5 28H20.5C20.7652 28 21.0196 27.8946 21.2071 27.7071C21.3946 27.5196 21.5 27.2652 21.5 27V24C21.5 23.7348 21.3946 23.4804 21.2071 23.2929C21.0196 23.1054 20.7652 23 20.5 23H17.5ZM27 11H24V14H27V11ZM24 10C23.7348 10 23.4804 10.1054 23.2929 10.2929C23.1054 10.4804 23 10.7348 23 11V14C23 14.2652 23.1054 14.5196 23.2929 14.7071C23.4804 14.8946 23.7348 15 24 15H27C27.2652 15 27.5196 14.8946 27.7071 14.7071C27.8946 14.5196 28 14.2652 28 14V11C28 10.7348 27.8946 10.4804 27.7071 10.2929C27.5196 10.1054 27.2652 10 27 10H24ZM27 17.5H24V20.5H27V17.5ZM24 16.5C23.7348 16.5 23.4804 16.6054 23.2929 16.7929C23.1054 16.9804 23 17.2348 23 17.5V20.5C23 20.7652 23.1054 21.0196 23.2929 21.2071C23.4804 21.3946 23.7348 21.5 24 21.5H27C27.2652 21.5 27.5196 21.3946 27.7071 21.2071C27.8946 21.0196 28 20.7652 28 20.5V17.5C28 17.2348 27.8946 16.9804 27.7071 16.7929C27.5196 16.6054 27.2652 16.5 27 16.5H24ZM27 24H24V27H27V24ZM24 23C23.7348 23 23.4804 23.1054 23.2929 23.2929C23.1054 23.4804 23 23.7348 23 24V27C23 27.2652 23.1054 27.5196 23.2929 27.7071C23.4804 27.8946 23.7348 28 24 28H27C27.2652 28 27.5196 27.8946 27.7071 27.7071C27.8946 27.5196 28 27.2652 28 27V24C28 23.7348 27.8946 23.4804 27.7071 23.2929C27.5196 23.1054 27.2652 23 27 23H24Z" fill="#070707"/>
<defs>
<filter id="filter0_f_1_810" x="0" y="0" width="38" height="38" filterUnits="userSpaceOnUse" color-interpolation-filters="sRGB">
<feFlood flood-opacity="0" result="BackgroundImageFix"/>
<feBlend mode="normal" in="SourceGraphic" in2="BackgroundImageFix" result="shape"/>
<feGaussianBlur stdDeviation="0.5" result="effect1_foregroundBlur_1_810"/>
</filter>
</defs>
</svg>
