<svg width="26" height="26" viewBox="0 0 26 26" fill="none" xmlns="http://www.w3.org/2000/svg">
<rect x="0.517456" y="0.5" width="24.1149" height="25" rx="2.5" stroke="#DD0000"/>
<path d="M8.95258 20C8.55412 20 8.2129 19.8476 7.92891 19.5427C7.64491 19.2378 7.50316 18.8717 7.50364 18.4444V8.33333H6.77917V6.77778H10.4015V6H14.7483V6.77778H18.3707V8.33333H17.6462V18.4444C17.6462 18.8722 17.5042 19.2386 17.2202 19.5434C16.9362 19.8483 16.5952 20.0005 16.1973 20H8.95258ZM16.1973 8.33333H8.95258V18.4444H16.1973V8.33333ZM10.4015 16.8889H11.8505V9.88889H10.4015V16.8889ZM13.2994 16.8889H14.7483V9.88889H13.2994V16.8889Z" fill="#DA0000"/>
</svg>
