<svg width="38" height="38" viewBox="0 0 38 38" fill="none" xmlns="http://www.w3.org/2000/svg">
<g filter="url(#filter0_f_1_806)">
<circle cx="19" cy="19" r="18" fill="#F3F3F3"/>
</g>
<path opacity="0.5" d="M17.6 26C14.9603 26 13.6401 26 12.8204 25.1796C12 24.3599 12 23.7397 12 21.1M26 21.1C26 23.7397 26 24.3599 25.1796 25.1796C24.3599 26 23.0397 26 20.4 26M20.4 12C23.0397 12 24.3599 12 25.1796 12.8204C26 13.6401 26 14.2603 26 16.9M17.6 12C14.9603 12 13.6401 12 12.8204 12.8204C12 13.6401 12 14.2603 12 16.9" stroke="black" stroke-width="1.5" stroke-linecap="round"/>
<defs>
<filter id="filter0_f_1_806" x="0" y="0" width="38" height="38" filterUnits="userSpaceOnUse" color-interpolation-filters="sRGB">
<feFlood flood-opacity="0" result="BackgroundImageFix"/>
<feBlend mode="normal" in="SourceGraphic" in2="BackgroundImageFix" result="shape"/>
<feGaussianBlur stdDeviation="0.5" result="effect1_foregroundBlur_1_806"/>
</filter>
</defs>
</svg>
