<svg width="38" height="38" viewBox="0 0 38 38" fill="none" xmlns="http://www.w3.org/2000/svg">
<g filter="url(#filter0_f_1_781)">
<circle cx="19" cy="19" r="18" fill="#EFEFEF"/>
<circle cx="19" cy="19" r="17.5" stroke="#E3E3E3"/>
</g>
<mask id="path-3-inside-1_1_781" fill="white">
<path d="M21.2349 8C21.4056 8.00001 21.5718 8.05281 21.7098 8.1508C21.8477 8.24879 21.9502 8.38692 22.0024 8.54529L22.8892 11.2309C23.2617 11.4084 23.6181 11.608 23.9583 11.8327L26.7898 11.2387C26.9567 11.204 27.1307 11.2218 27.2866 11.2896C27.4425 11.3573 27.5723 11.4716 27.6573 11.6159L29.8922 15.3857C29.9775 15.5299 30.0136 15.6968 29.9954 15.8623C29.9771 16.0278 29.9054 16.1834 29.7906 16.3066L27.8476 18.3966C27.8758 18.7973 27.8758 19.1995 27.8476 19.6003L29.7906 21.6934C29.9054 21.8166 29.9771 21.9722 29.9954 22.1377C30.0136 22.3032 29.9775 22.4701 29.8922 22.6143L27.6573 26.3857C27.572 26.5297 27.4421 26.6436 27.2863 26.7111C27.1304 26.7786 26.9566 26.7962 26.7898 26.7613L23.9583 26.1673C23.6197 26.3904 23.2617 26.5916 22.8909 26.7691L22.0024 29.4547C21.9502 29.6131 21.8477 29.7512 21.7098 29.8492C21.5718 29.9472 21.4056 30 21.2349 30H16.7651C16.5944 30 16.4282 29.9472 16.2902 29.8492C16.1523 29.7512 16.0498 29.6131 15.9976 29.4547L15.1124 26.7707C14.7409 26.5937 14.3826 26.3915 14.0401 26.1657L11.2102 26.7613C11.0433 26.796 10.8693 26.7782 10.7134 26.7104C10.5575 26.6427 10.4277 26.5284 10.3427 26.3841L8.10785 22.6143C8.02251 22.4701 7.98636 22.3032 8.00462 22.1377C8.02288 21.9722 8.0946 21.8166 8.20944 21.6934L10.1524 19.6003C10.1243 19.2006 10.1243 18.7994 10.1524 18.3997L8.20944 16.3066C8.0946 16.1834 8.02288 16.0278 8.00462 15.8623C7.98636 15.6968 8.02251 15.5299 8.10785 15.3857L10.3427 11.6143C10.428 11.4703 10.5579 11.3564 10.7137 11.2889C10.8696 11.2214 11.0434 11.2038 11.2102 11.2387L14.0401 11.8343C14.3819 11.6096 14.7399 11.4069 15.1124 11.2293L15.9992 8.54529C16.0513 8.38743 16.1532 8.24967 16.2905 8.15172C16.4278 8.05378 16.5934 8.00067 16.7635 8H21.2333H21.2349ZM20.6447 9.57143H17.3553L16.4394 12.3481L15.8218 12.642C15.5182 12.7868 15.2252 12.9516 14.9447 13.1354L14.3739 13.5126L11.4456 12.8966L9.80093 15.6749L11.8084 17.8403L11.7601 18.5066C11.7369 18.8351 11.7369 19.1649 11.7601 19.4934L11.8084 20.1597L9.79771 22.3251L11.444 25.1034L14.3722 24.489L14.9431 24.8646C15.2236 25.0484 15.5166 25.2132 15.8202 25.358L16.4378 25.6519L17.3553 28.4286H20.6479L21.567 25.6503L22.183 25.358C22.4863 25.2136 22.7788 25.0487 23.0586 24.8646L23.6278 24.489L26.5576 25.1034L28.2023 22.3251L26.1932 20.1597L26.2415 19.4934C26.2648 19.1643 26.2648 18.8341 26.2415 18.505L26.1932 17.8387L28.2039 15.6749L26.5576 12.8966L23.6278 13.5094L23.0586 13.1354C22.7789 12.9513 22.4863 12.7864 22.183 12.642L21.567 12.3497L20.6463 9.57143H20.6447ZM19 14.2857C20.283 14.2857 21.5134 14.7824 22.4205 15.6665C23.3277 16.5506 23.8374 17.7497 23.8374 19C23.8374 20.2503 23.3277 21.4494 22.4205 22.3335C21.5134 23.2176 20.283 23.7143 19 23.7143C17.717 23.7143 16.4866 23.2176 15.5795 22.3335C14.6723 21.4494 14.1626 20.2503 14.1626 19C14.1626 17.7497 14.6723 16.5506 15.5795 15.6665C16.4866 14.7824 17.717 14.2857 19 14.2857ZM19 15.8571C18.1447 15.8571 17.3244 16.1883 16.7196 16.7777C16.1149 17.3671 15.7751 18.1665 15.7751 19C15.7751 19.8335 16.1149 20.6329 16.7196 21.2223C17.3244 21.8117 18.1447 22.1429 19 22.1429C19.8553 22.1429 20.6756 21.8117 21.2804 21.2223C21.8851 20.6329 22.2249 19.8335 22.2249 19C22.2249 18.1665 21.8851 17.3671 21.2804 16.7777C20.6756 16.1883 19.8553 15.8571 19 15.8571Z"/>
</mask>
<path d="M21.2349 8C21.4056 8.00001 21.5718 8.05281 21.7098 8.1508C21.8477 8.24879 21.9502 8.38692 22.0024 8.54529L22.8892 11.2309C23.2617 11.4084 23.6181 11.608 23.9583 11.8327L26.7898 11.2387C26.9567 11.204 27.1307 11.2218 27.2866 11.2896C27.4425 11.3573 27.5723 11.4716 27.6573 11.6159L29.8922 15.3857C29.9775 15.5299 30.0136 15.6968 29.9954 15.8623C29.9771 16.0278 29.9054 16.1834 29.7906 16.3066L27.8476 18.3966C27.8758 18.7973 27.8758 19.1995 27.8476 19.6003L29.7906 21.6934C29.9054 21.8166 29.9771 21.9722 29.9954 22.1377C30.0136 22.3032 29.9775 22.4701 29.8922 22.6143L27.6573 26.3857C27.572 26.5297 27.4421 26.6436 27.2863 26.7111C27.1304 26.7786 26.9566 26.7962 26.7898 26.7613L23.9583 26.1673C23.6197 26.3904 23.2617 26.5916 22.8909 26.7691L22.0024 29.4547C21.9502 29.6131 21.8477 29.7512 21.7098 29.8492C21.5718 29.9472 21.4056 30 21.2349 30H16.7651C16.5944 30 16.4282 29.9472 16.2902 29.8492C16.1523 29.7512 16.0498 29.6131 15.9976 29.4547L15.1124 26.7707C14.7409 26.5937 14.3826 26.3915 14.0401 26.1657L11.2102 26.7613C11.0433 26.796 10.8693 26.7782 10.7134 26.7104C10.5575 26.6427 10.4277 26.5284 10.3427 26.3841L8.10785 22.6143C8.02251 22.4701 7.98636 22.3032 8.00462 22.1377C8.02288 21.9722 8.0946 21.8166 8.20944 21.6934L10.1524 19.6003C10.1243 19.2006 10.1243 18.7994 10.1524 18.3997L8.20944 16.3066C8.0946 16.1834 8.02288 16.0278 8.00462 15.8623C7.98636 15.6968 8.02251 15.5299 8.10785 15.3857L10.3427 11.6143C10.428 11.4703 10.5579 11.3564 10.7137 11.2889C10.8696 11.2214 11.0434 11.2038 11.2102 11.2387L14.0401 11.8343C14.3819 11.6096 14.7399 11.4069 15.1124 11.2293L15.9992 8.54529C16.0513 8.38743 16.1532 8.24967 16.2905 8.15172C16.4278 8.05378 16.5934 8.00067 16.7635 8H21.2333H21.2349ZM20.6447 9.57143H17.3553L16.4394 12.3481L15.8218 12.642C15.5182 12.7868 15.2252 12.9516 14.9447 13.1354L14.3739 13.5126L11.4456 12.8966L9.80093 15.6749L11.8084 17.8403L11.7601 18.5066C11.7369 18.8351 11.7369 19.1649 11.7601 19.4934L11.8084 20.1597L9.79771 22.3251L11.444 25.1034L14.3722 24.489L14.9431 24.8646C15.2236 25.0484 15.5166 25.2132 15.8202 25.358L16.4378 25.6519L17.3553 28.4286H20.6479L21.567 25.6503L22.183 25.358C22.4863 25.2136 22.7788 25.0487 23.0586 24.8646L23.6278 24.489L26.5576 25.1034L28.2023 22.3251L26.1932 20.1597L26.2415 19.4934C26.2648 19.1643 26.2648 18.8341 26.2415 18.505L26.1932 17.8387L28.2039 15.6749L26.5576 12.8966L23.6278 13.5094L23.0586 13.1354C22.7789 12.9513 22.4863 12.7864 22.183 12.642L21.567 12.3497L20.6463 9.57143H20.6447ZM19 14.2857C20.283 14.2857 21.5134 14.7824 22.4205 15.6665C23.3277 16.5506 23.8374 17.7497 23.8374 19C23.8374 20.2503 23.3277 21.4494 22.4205 22.3335C21.5134 23.2176 20.283 23.7143 19 23.7143C17.717 23.7143 16.4866 23.2176 15.5795 22.3335C14.6723 21.4494 14.1626 20.2503 14.1626 19C14.1626 17.7497 14.6723 16.5506 15.5795 15.6665C16.4866 14.7824 17.717 14.2857 19 14.2857ZM19 15.8571C18.1447 15.8571 17.3244 16.1883 16.7196 16.7777C16.1149 17.3671 15.7751 18.1665 15.7751 19C15.7751 19.8335 16.1149 20.6329 16.7196 21.2223C17.3244 21.8117 18.1447 22.1429 19 22.1429C19.8553 22.1429 20.6756 21.8117 21.2804 21.2223C21.8851 20.6329 22.2249 19.8335 22.2249 19C22.2249 18.1665 21.8851 17.3671 21.2804 16.7777C20.6756 16.1883 19.8553 15.8571 19 15.8571Z" fill="black" stroke="black" stroke-width="2" mask="url(#path-3-inside-1_1_781)"/>
<defs>
<filter id="filter0_f_1_781" x="0" y="0" width="38" height="38" filterUnits="userSpaceOnUse" color-interpolation-filters="sRGB">
<feFlood flood-opacity="0" result="BackgroundImageFix"/>
<feBlend mode="normal" in="SourceGraphic" in2="BackgroundImageFix" result="shape"/>
<feGaussianBlur stdDeviation="0.5" result="effect1_foregroundBlur_1_781"/>
</filter>
</defs>
</svg>
